<?xml version="1.0" encoding="utf-8"?>
<!-- Generator: Adobe Illustrator 17.1.0, SVG Export Plug-In . SVG Version: 6.00 Build 0)  -->
<!DOCTYPE svg PUBLIC "-//W3C//DTD SVG 1.1//EN" "http://www.w3.org/Graphics/SVG/1.1/DTD/svg11.dtd">
<svg version="1.1" id="Layer_1" xmlns="http://www.w3.org/2000/svg" xmlns:xlink="http://www.w3.org/1999/xlink" x="0px" y="0px"
	 viewBox="0 0 460 300" enable-background="new 0 0 460 300" xml:space="preserve">
<path fill="#FFFFFF" d="M460,288c0,6.6-5.4,12-12,12H12c-6.6,0-12-5.4-12-12V12C0,5.4,5.4,0,12,0h436c6.6,0,12,5.4,12,12V288z"/>
<g>
	<path fill="#336699" d="M197,257.2c-0.2-2-0.8-3.7-2-5c-1.2-1.3-3-2.4-5.5-3.4l-5.8-2.1l-3.9-1.3c-1.7-0.6-3.3-1.3-4.8-2
		c-1.5-0.7-2.8-1.6-3.9-2.5c-1.1-1-2-2.2-2.7-3.5c-0.7-1.4-1-3.1-1-5c0-1.9,0.3-3.6,1-5c0.7-1.4,1.5-2.6,2.6-3.6
		c1.1-1,2.3-1.8,3.6-2.4c1.3-0.6,2.7-1.1,4.1-1.5c1.4-0.3,2.7-0.6,4-0.7c1.3-0.1,2.4-0.2,3.3-0.2c3,0,5.6,0.3,7.9,0.8
		c2.3,0.5,4.2,1.2,5.8,2c1.6,0.9,2.8,1.8,3.6,3c0.8,1.1,1.2,2.3,1.2,3.5c0,1.1-0.4,2-1.2,2.6c-0.8,0.7-1.7,1-2.8,1
		c-1.3,0-2.4-0.3-3.3-0.9c-0.9-0.6-1.6-1.5-2.2-2.7c-1.7-3.5-4.7-5.2-9-5.2c-2.7,0-4.8,0.7-6.4,2c-1.6,1.3-2.4,3.3-2.4,6
		c0,0.9,0.2,1.7,0.6,2.4c0.4,0.7,0.9,1.3,1.4,1.9c0.6,0.6,1.2,1.1,1.9,1.5c0.7,0.4,1.4,0.8,2.2,1.1l2.8,1.2l3.4,1.2
		c0.9,0.3,1.8,0.6,2.7,0.9s1.8,0.6,2.6,0.9c0.9,0.3,1.7,0.7,2.6,1.1c0.8,0.4,1.7,0.9,2.5,1.4c1,0.6,1.9,1.2,2.7,1.8s1.6,1.4,2.3,2.2
		c0.7,0.8,1.2,1.7,1.6,2.7c0.4,1,0.6,2.1,0.6,3.4c0,2.2-0.5,4.3-1.5,6.1c-1,1.9-2.4,3.4-4.3,4.8c-1.8,1.3-4,2.3-6.6,3.1
		c-2.6,0.7-5.4,1.1-8.5,1.1c-2.5,0-4.9-0.2-7.2-0.7c-2.3-0.4-4.5-1.1-6.3-1.9c-1.9-0.9-3.4-1.9-4.5-3.1s-1.7-2.6-1.7-4.2
		c0-0.5,0.1-1,0.3-1.5c0.2-0.5,0.5-0.9,0.9-1.2c0.4-0.3,0.8-0.6,1.3-0.8c0.5-0.2,1-0.3,1.5-0.3c2.6,0,4.5,1.2,5.6,3.6
		c0.3,0.7,0.7,1.4,1.2,2.1c0.5,0.7,1.1,1.3,1.9,1.9c0.8,0.6,1.8,1,2.9,1.4c1.2,0.4,2.6,0.5,4.4,0.5c1.5,0,2.9-0.2,4.1-0.5
		c1.3-0.3,2.4-0.8,3.3-1.5s1.7-1.6,2.2-2.6C196.7,259.8,197,258.6,197,257.2z"/>
	<path fill="#336699" d="M251.4,223.2c0,2.6-1.3,3.9-3.9,3.9h-3.4c-2.6,0-4.9,0.4-6.8,1.1c-1.9,0.7-3.4,1.7-4.7,2.9s-2.1,2.5-2.7,4
		c-0.6,1.5-0.8,3.1-0.8,4.6v22.6c0,1.4-0.1,2.6-0.3,3.5c-0.2,0.9-0.6,1.6-1.1,2.2c-0.5,0.5-1.2,0.9-2,1.1c-0.8,0.2-1.8,0.3-3,0.3
		c-1.6,0-2.6-0.4-3.2-1.2s-0.8-2-0.8-3.6v-41.6c0-1.6,0.3-2.7,1-3.4c0.7-0.6,1.8-1,3.4-1c1.9,0,3.3,0.7,4.4,2.2s1.6,3.6,1.6,6.5v2.5
		h0.2c0.6-1,1.3-2.1,2.3-3.4c0.9-1.3,2-2.5,3.4-3.7c1.3-1.2,2.9-2.1,4.6-2.9c1.8-0.8,3.8-1.2,6-1.2h1.2c1.7,0,2.9,0.4,3.6,1.1
		C250.9,220.6,251.3,221.7,251.4,223.2z"/>
	<path fill="#336699" d="M287.1,260l-0.3-0.1c-2.2,3.4-4.7,5.8-7.6,7.3c-2.9,1.5-6.3,2.3-10.2,2.3c-2.5,0-4.7-0.3-6.6-1
		c-1.9-0.6-3.5-1.6-4.8-2.7c-1.3-1.2-2.2-2.6-2.9-4.3c-0.6-1.7-1-3.5-1-5.6c0-2.2,0.4-4.3,1.1-6.4s2.1-4,4-5.7c1.9-1.7,4.5-3,7.8-4
		c3.3-1,7.5-1.5,12.6-1.5h7.4v-2.8c0-2.3-0.2-4.2-0.6-5.8c-0.4-1.6-1-2.9-1.8-3.9c-0.8-1-1.8-1.7-3.1-2.1c-1.3-0.4-2.8-0.7-4.6-0.7
		c-3.4,0-6.3,1.4-8.9,4.2c-2.2,2.4-4.2,3.5-6.2,3.5c-1.2,0-2-0.3-2.6-1c-0.6-0.7-0.9-1.5-0.9-2.5c0-1.3,0.6-2.4,1.8-3.5
		c1.2-1,2.8-1.9,4.8-2.6c2-0.7,4.2-1.3,6.6-1.7s4.9-0.6,7.4-0.6c3.6,0,6.7,0.4,9.1,1.1c2.4,0.8,4.3,1.9,5.7,3.4
		c1.4,1.5,2.4,3.4,3,5.7c0.6,2.3,0.9,5,0.9,8.1v27.7c0,1.6-0.3,2.8-0.8,3.6c-0.6,0.8-1.6,1.2-3.1,1.2c-2.2,0-3.8-0.7-4.7-2.2
		C287.6,265.8,287.1,263.3,287.1,260z M286.7,242.4h-5.9c-11,0-16.6,4-16.6,12.1c0,5.5,2.9,8.3,8.8,8.3c1.3,0,2.7-0.2,4.3-0.7
		c1.6-0.5,3.1-1.2,4.5-2.2c1.4-1,2.6-2.2,3.5-3.7c0.9-1.5,1.4-3.2,1.4-5.2V242.4z"/>
	<path fill="#336699" d="M349,218.8c2.1,0,3.2,0.8,3.2,2.3c0,1.1-0.2,2-0.5,2.7L334.9,267c-0.7,1.7-2.6,2.5-5.9,2.5
		c-2.9,0-4.7-0.8-5.3-2.5l-16.6-43.1c-0.4-0.8-0.5-1.6-0.5-2.3c0-1.8,1.2-2.7,3.7-2.7c1.8,0,3.4,0.6,4.8,1.7s2.6,2.8,3.5,5.1
		l12.2,34h0.5l6.9-18.2c1.5-4,3.2-9.5,5.2-16.3c0.6-2,1.2-3.5,2-4.6S347.4,218.8,349,218.8z"/>
	<path fill="#336699" d="M362.4,264.8v-41.6c0-1.6,0.3-2.7,1-3.4c0.7-0.6,1.8-1,3.4-1c1.9,0,3.3,0.7,4.4,2.2
		c1.1,1.4,1.6,3.6,1.6,6.5v0.7h0.2c1.8-2.9,4.1-5.1,7.1-6.8c3-1.7,6.5-2.5,10.5-2.5c9.5,0,14.2,5.1,14.2,15.2v30.7
		c0,1.6-0.3,2.8-0.8,3.6s-1.6,1.2-3.2,1.2c-2.3,0-3.9-0.6-4.9-1.9c-1-1.3-1.5-3.4-1.5-6.4v-25.3c0-6.9-2.9-10.4-8.6-10.4
		c-1.5,0-3,0.3-4.5,0.9c-1.5,0.6-2.9,1.5-4.1,2.5s-2.2,2.3-3,3.7c-0.8,1.4-1.2,2.9-1.2,4.4v25.2c0,1.4-0.1,2.6-0.3,3.6
		c-0.2,0.9-0.6,1.6-1.1,2.2c-0.5,0.5-1.2,0.9-2,1.1c-0.8,0.2-1.8,0.3-3,0.3c-1.6,0-2.6-0.4-3.2-1.2
		C362.7,267.6,362.4,266.4,362.4,264.8z"/>
	<path fill="#336699" d="M421.1,210.4c-1.2-1.2-1.8-2.7-1.8-4.4c0-0.8,0.2-1.6,0.5-2.4c0.3-0.8,0.8-1.4,1.3-2c0.6-0.6,1.2-1,2-1.4
		c0.8-0.3,1.6-0.5,2.4-0.5c0.8,0,1.6,0.2,2.4,0.5c0.8,0.3,1.4,0.8,2,1.4c0.6,0.6,1,1.2,1.4,2c0.3,0.8,0.5,1.6,0.5,2.4
		c0,0.9-0.2,1.7-0.5,2.4c-0.3,0.8-0.8,1.4-1.4,2c-0.6,0.6-1.2,1-2,1.4c-0.8,0.3-1.6,0.5-2.4,0.5
		C423.7,212.3,422.3,211.6,421.1,210.4z M430.9,225.7v37c0,1.4-0.1,2.6-0.3,3.5c-0.2,0.9-0.6,1.6-1.1,2.1s-1.2,0.8-2,1
		c-0.8,0.2-1.8,0.3-3,0.3c-1.6,0-2.6-0.4-3.2-1.2c-0.6-0.8-0.8-2-0.8-3.6v-41.2c0-1.6,0.3-2.8,0.8-3.6c0.6-0.8,1.6-1.2,3.2-1.2
		c2.2,0,3.8,0.6,4.9,1.7C430.4,221.6,430.9,223.3,430.9,225.7z"/>
</g>
<g>
	<path fill="#336699" d="M222.5,163.1c-1.9-1-8.7-1.1-10.7-0.9c-7.5,0.7-12.5,1.1-19.1,2.2c-7.7,1.3-40.6,9.5-41.9-5.4
		c-0.3-4-0.4-6-3.7-8.8c-2.5-2.1-4.2-4.1-3.9-7.6c0.4-4,1.3-4.9-1.9-8c-3.2-3.1-2.4-7.3-0.3-10.8c0,0,0.1-0.1,0.1-0.1
		c2-2.5-0.7-5.8-1.4-8.2c-1.2-4.2,2.6-6.8,6.1-8.1c8.2-3.1,16.2-0.8,24.5-0.9c20.7-0.3-12.4-36.6,2.7-44.5c0.1,0,0.1-0.1,0.2-0.1
		c0.1-0.1,0.2-0.1,0.3-0.2c2.7-1.2,3.6,0.4,3.8,3.1c0.3,4.1,1.3,7.5,3.3,11.2c3.8,7,8.9,14,13.8,20.2c3.8,4.8,8.4,9.3,13.3,13.1
		c2.4,1.8,15.2,7.5,15.2,1.4V60.1C223,43,211.3,28,194.5,28H58.2c-13.7,0-25.6,10-29.3,23c0,0-5,11.2,2.6,11.2
		c4.7,0,9.5-0.4,14.2-0.8c10.2-0.9,20.3-2.6,30.5-2.7c9.4-0.1,19.1,1.3,28,4.6c3.1,1.2,6.9,3,6.8,6.9c-0.1,2.7-2.2,6.6,0.5,8.6
		c2.1,2.9,3.8,6.3,3.2,10c-0.3,1.7-1.8,3.6-1.7,5.3c0.2,1.9,2.5,3.7,3.3,5.5c1.3,3.1,1.4,6.5-0.9,9.1c-1.6,1.9-5,3.8-5.1,6.5
		c-1.2,2.8,2.3,7.6,1.9,10.9c-0.5,4.3-3.3,6.7-7.6,6.5c-3.6-0.1-18.1-3.2-17.3-8.5c2.7,0.6,6.5,3.2,9.2,1.4c3.2-2.2,0.8-5-1.7-6
		c-3.7-1.4-7.9-2-11.8-2.4c-4.1-0.5-10.1-1.6-13.9,0.5c-1.3,0.8-1.4,2.1-0.6,3.3c2.4,4,4.7,0.9,4.8,6.9c0.1,6.1-0.2,17.8-6.9,20.8
		c-2.5,1.1-5.1,1-5.1-2.2c0.1-5,0.2-9.8-0.8-14.7c-1.7-8.7-5.9-15.8-13.5-20.5c-2.6-1.6-20.6-6.6-20.6-1.5v54
		c0,17.2,15.3,31.3,32.2,31.3h42.1c0.4,0,0.7,0.2,1,0.5l32.7,33c5.7,5.7,13,0.9,13-6.2v-25.7c0-0.8,2.4-1.6,3.2-1.6h44.3
		c13.2,0,28.4-10.9,29.2-25C223.8,168.2,224.6,164.1,222.5,163.1z M194.5,188h-50c-2.6,0-4.5,2.3-4.5,4.8v29.4
		c0,0.9,0.2,2.6-1.2,1.2l-28.1-28.3l-5.4-5.5c-1.1-1.1-2.4-1.7-3.9-1.7H58.2C45.3,188,33,177,33,163.7V116c0-0.8,0.6-1.5,1.4-1.4
		c7.8,0.6,13.7,4.7,16.8,11.6c1.8,4,2.8,8.4,3,12.7c0.2,3.6-0.8,7.4-0.1,11c2.2,10.2,16.2,5.1,20.1-0.7c5-7.5,6-17.7,4.8-26.4
		c2.3,0.2,1.7,0.7,1.5,2.6c-1,9.4,18.3,13.3,24.8,13.5c11.6,0.4,15.2-12.8,11.5-22c7.4-6,8.4-15.9,3-23.6c2.4-6.2,1.1-12.7-3.1-17.8
		c2.2-7.6-1.2-14.3-8.4-17.3c-8.5-3.6-18.9-6.4-28.2-6.6c-13.9-0.3-29,2.6-43,2.9c-1,0-1.7-1.3-1.3-2.2C39.3,43.9,46.1,35,58.2,35
		h136.3c12.9,0,20.5,11.8,20.5,25.1v44.3c0,1-0.8,1.7-1.7,1.3c-3.4-1.2-6.2-5-8.6-7.4c-4.8-4.9-8.6-10.4-12.3-16.2
		c-3.2-5.1-7-10.5-8.1-16.5c-0.8-4.3-1.8-11-7.3-11.6c-7.4-0.8-14.6,8.4-14.9,15.1c-0.5,11,8.4,21.8,9.3,30.6
		c-9.3-0.9-19.5-1.8-28.3,1.7c-8.3,3.3-13,11.7-8.4,20.1c-3.6,6.1-2.5,13.2,2.4,18.1c-1.1,4.6-0.7,9.9,2.7,13.2
		c3.7,3.5,3.3,2.3,5.4,9.9c2.1,7.5,10.7,10.4,17.7,10.9c7.6,0.5,15.2-0.6,22.6-1.9c14.1-2.6,24.2-2.6,29.7-2.3
		c0.8,0,1.4,0.7,1.3,1.5C215.1,178.1,204.8,188,194.5,188z"/>
	<linearGradient id="SVGID_1_" gradientUnits="userSpaceOnUse" x1="147.1575" y1="55.7735" x2="104.6493" y2="169.586">
		<stop  offset="0" style="stop-color:#00CCCC"/>
		<stop  offset="0.9001" style="stop-color:#0099FF"/>
	</linearGradient>
	<path fill="url(#SVGID_1_)" d="M213.1,172.1c-2.3,5.6-10.6,12.9-18.6,12.9h-50c-4.2,0-7.5,3.7-7.5,7.8v24.8l-24.3-24.5l-5.4-5.6
		c-1.6-1.6-3.6-2.6-5.9-2.6H58.2C46.4,185,36,175,36,163.7v-46.1c6,0.9,10.2,4.2,12.7,9.8c1.6,3.6,2.5,7.6,2.7,11.7
		c0.1,1.3-0.1,2.6-0.2,4.1c-0.2,2.4-0.4,4.8,0.1,7.4c1.1,5.1,4.8,8.1,10.1,8.1c5.6,0,12.3-3.5,15.2-7.9c3-4.5,4.8-10.2,5.5-16.5
		c6.9,5.7,19.8,7.3,23.2,7.4c0.2,0,0.5,0,0.7,0c5,0,9.2-2.2,12-6.3c3.2-4.7,4.1-11.6,2.3-17.7c6.7-6.6,7.9-16.6,2.9-24.9
		c1.9-6.1,0.8-12.7-3.1-18.1c1.7-8.3-2.3-15.9-10.4-19.3c-9.9-4.2-20.5-6.6-29.2-6.8c-0.6,0-1.2,0-1.9,0c-7.2,0-14.7,0.7-22,1.5
		c-5.6,0.6-11.4,1-17,1.2C42.5,44.9,48.2,38,58.2,38h136.1c11.9,0,18.7,11.3,18.7,22.1V102c-2-1.1-3.1-2.6-4.5-4.1
		c-0.5-0.6-1.1-1.1-1.6-1.6c-4.8-4.9-8.6-10.4-12-15.7c-0.4-0.6-0.8-1.2-1.1-1.7c-2.8-4.4-5.8-9-6.7-13.8l-0.1-0.5
		c-0.9-4.7-2.4-12.6-9.8-13.4c-0.4,0-0.8-0.1-1.2-0.1c-8.7,0-16.5,9.8-16.9,17.9c-0.3,6.9,2.7,13.7,5.4,19.6
		c1.2,2.8,2.4,5.5,3.2,7.9c-3.1-0.3-6.2-0.5-9.4-0.5c-6.5,0-11.8,0.9-16.4,2.7c-5.4,2.2-9.4,6.1-11.1,10.9
		c-1.4,3.9-1.2,7.9,0.6,11.8c-3.1,6.4-2.1,13.5,2.6,19c-1,5.8,0.4,11.1,3.8,14.4c0.5,0.5,1,0.9,1.4,1.3c1.7,1.5,1.7,1.5,3.3,7.2
		l0,0.1c3,10.9,16.3,12.7,20.2,13c1.3,0.1,2.7,0.1,4.1,0.1c6.5,0,13.1-1,19.2-2.1c8.7-1.6,16.9-2.5,24.3-2.5
		C211.2,172.1,212.2,172.1,213.1,172.1z"/>
</g>
</svg>
